<svg xmlns="http://www.w3.org/2000/svg" viewBox="0 0 64 64" role="img" aria-label="Debate Chatbot icon">
  <defs>
    <linearGradient id="g" x1="0" y1="0" x2="1" y2="1">
      <stop offset="0" stop-color="#1d4ed8" stop-opacity="0.18" />
      <stop offset="1" stop-color="#c2410c" stop-opacity="0.18" />
    </linearGradient>
  </defs>
  <rect x="6" y="6" width="52" height="52" rx="16" fill="url(#g)" stroke="#111827" stroke-opacity="0.16" />
  <path
    d="M18 22.5c0-3 2.4-5.5 5.5-5.5h17c3 0 5.5 2.4 5.5 5.5v10c0 3-2.4 5.5-5.5 5.5H30l-6.6 5.2c-.8.6-2 .1-2-.9V38c-2-.9-3.4-2.9-3.4-5.2v-10.3z"
    fill="none"
    stroke="#111827"
    stroke-opacity="0.62"
    stroke-width="3"
    stroke-linejoin="round"
  />
  <path d="M26 24h12" stroke="#111827" stroke-opacity="0.45" stroke-width="3" stroke-linecap="round" />
  <path d="M26 30h8" stroke="#111827" stroke-opacity="0.45" stroke-width="3" stroke-linecap="round" />
  <path
    d="M42.5 44.5h-4.2c-1.1 0-2-.9-2-2v-4.2c0-1.1.9-2 2-2h4.2c1.1 0 2 .9 2 2v4.2c0 1.1-.9 2-2 2z"
    fill="#111827"
    fill-opacity="0.12"
    stroke="#111827"
    stroke-opacity="0.35"
    stroke-width="2"
  />
  <path d="M39 39.6v1.8" stroke="#111827" stroke-opacity="0.55" stroke-width="2" stroke-linecap="round" />
  <path d="M41.8 39.6v1.8" stroke="#111827" stroke-opacity="0.55" stroke-width="2" stroke-linecap="round" />
</svg>

